<?xml version="1.0" encoding="utf-8"?>
<!-- Generator: Adobe Illustrator 25.2.3, SVG Export Plug-In . SVG Version: 6.00 Build 0)  -->
<svg version="1.1" id="Layer_1" xmlns="http://www.w3.org/2000/svg" xmlns:xlink="http://www.w3.org/1999/xlink" x="0px" y="0px"
	 viewBox="0 0 50 50" style="enable-background:new 0 0 50 50;" xml:space="preserve">
<style type="text/css">
	.st0{clip-path:url(#SVGID_2_);fill:#118DCC;}
</style>
<g>
	<defs>
		<path id="SVGID_1_" d="M4.7,33.7c0.9,2.2,2,4.2,3.5,6c0.7-0.2,1.4-0.4,2.1-0.5c2.8-0.8,5.7-1.9,8.4-3.1c0.7-0.3,1.5-0.7,2.2-1
			c-3.4-2-5.7-5.7-5.8-9.9c0,0,0-0.1,0-0.1c0-0.4,0-0.8,0.1-1.1c0.2-2.2,1.1-4.3,2.4-6c1.9-2.4,4.6-4,7.8-4.4
			c0.4-0.1,0.9-0.1,1.4-0.1c1.8,0,3.6,0.4,5.1,1.2c0.4,0.2,0.7,0.4,1.1,0.6c0.6,0.4,1.1,0.8,1.6,1.2c1.6,1.5,3.9,1.7,5.9,0.6
			l6.8-3.9c-0.3-0.6-0.7-1.1-1.1-1.7c-0.2-0.3-0.5-0.6-0.7-0.9C44,9,42.6,7.6,41,6.3c-0.3-0.2-0.6-0.5-0.9-0.7
			C36.2,3,31.6,1.4,26.6,1.4C13.6,1.4,3,12,3,25c0,0.5,0,1,0,1.4c0,0.4,0.1,0.8,0.1,1.2c0.2,1.8,0.6,3.5,1.1,5.1
			C4.4,33,4.5,33.4,4.7,33.7 M37.3,32.2c-2.1,1.3-4.1,2.6-6.2,3.8c-4.8,2.8-9.9,5.4-15,7.7c-0.8,0.4-1.6,0.7-2.5,1.1
			c3.7,2.4,8.2,3.9,12.9,3.9c8.7,0,16.3-4.7,20.4-11.8l-6.8-3.9C39.3,32.3,38.3,32.1,37.3,32.2z"/>
	</defs>
	<use xlink:href="#SVGID_1_"  style="overflow:visible;fill-rule:evenodd;clip-rule:evenodd;fill:#118DCC;"/>
	<clipPath id="SVGID_2_">
		<use xlink:href="#SVGID_1_"  style="overflow:visible;"/>
	</clipPath>
	<rect x="3" y="1.4" class="st0" width="44" height="47.2"/>
</g>
</svg>
